<?xml version="1.0" encoding="UTF-8" standalone="no"?>
<!-- Created with Inkscape (http://www.inkscape.org/) -->

<svg
   width="68.417068mm"
   height="25.334616mm"
   viewBox="0 0 68.417068 25.334616"
   version="1.1"
   id="svg1"
   xmlns="http://www.w3.org/2000/svg"
   xmlns:svg="http://www.w3.org/2000/svg">
  <defs
     id="defs1" />
  <g
     id="layer1"
     transform="translate(-65.501733,-72.886105)" />
  <g
     id="layer2"
     transform="translate(-65.501733,-72.886105)">
    <g
       id="g11">
      <path
         style="font-weight:bold;font-size:9.525px;line-height:2.01612px;font-family:Arial;-inkscape-font-specification:'Arial Bold';letter-spacing:0px;word-spacing:0px;stroke-width:0.264583px"
         d="m 96.028139,88.9067 v -6.818188 h 1.306897 v 3.618384 l 1.530139,-1.739429 h 1.609205 l -1.68827,1.804541 1.80919,3.134692 h -1.409215 l -1.241784,-2.218469 -0.609265,0.63717 V 88.9067 Z M 101.372,83.29774 v -1.209228 h 1.3069 v 1.209228 z m 0,5.60896 v -4.939233 h 1.3069 V 88.9067 Z m 7.1391,0 h -1.3069 v -2.520776 q 0,-0.799951 -0.0837,-1.032495 -0.0837,-0.237195 -0.2744,-0.36742 -0.18603,-0.130224 -0.45113,-0.130224 -0.33952,0 -0.60927,0.186035 -0.26975,0.186035 -0.37207,0.492993 -0.0977,0.306958 -0.0977,1.134814 V 88.9067 h -1.30689 v -4.939233 h 1.21388 v 0.725537 q 0.64647,-0.837158 1.6278,-0.837158 0.43254,0 0.79065,0.15813 0.35812,0.153479 0.5395,0.395324 0.18604,0.241846 0.2558,0.548804 0.0744,0.306958 0.0744,0.879016 z m 5.85545,0 h -1.21388 v -0.725537 q -0.3023,0.42323 -0.71623,0.63252 -0.40928,0.204638 -0.82786,0.204638 -0.85111,0 -1.46037,-0.683679 -0.60462,-0.68833 -0.60462,-1.916162 0,-1.255737 0.59066,-1.90686 0.59066,-0.655774 1.49294,-0.655774 0.82785,0 1.43247,0.68833 v -2.455664 h 1.30689 z m -3.48816,-2.576587 q 0,0.79065 0.2186,1.144116 0.31625,0.511597 0.88366,0.511597 0.45114,0 0.7674,-0.381372 0.31626,-0.386023 0.31626,-1.148767 0,-0.851111 -0.30696,-1.223181 -0.30696,-0.376721 -0.786,-0.376721 -0.46509,0 -0.78135,0.37207 -0.31161,0.367419 -0.31161,1.102258 z m 5.75314,-0.855761 -1.18597,-0.213941 q 0.19999,-0.716235 0.68833,-1.0604 0.48834,-0.344165 1.45107,-0.344165 0.87437,0 1.30225,0.209289 0.42788,0.204639 0.59996,0.52555 0.17674,0.316259 0.17674,1.16737 l -0.014,1.525488 q 0,0.651123 0.0605,0.962732 0.0651,0.306958 0.2372,0.660425 h -1.29295 q -0.0512,-0.130224 -0.12557,-0.386023 -0.0326,-0.116272 -0.0465,-0.153479 -0.33486,0.325562 -0.71623,0.488342 -0.38138,0.162781 -0.81391,0.162781 -0.76274,0 -1.20457,-0.413928 -0.43719,-0.413928 -0.43719,-1.046448 0,-0.418579 0.19999,-0.74414 0.19999,-0.330213 0.55811,-0.502295 0.36276,-0.176734 1.04179,-0.306958 0.91623,-0.172083 1.26969,-0.320911 v -0.130224 q 0,-0.376722 -0.18603,-0.534851 -0.18604,-0.162781 -0.70229,-0.162781 -0.34881,0 -0.54415,0.139526 -0.19533,0.134876 -0.31626,0.479041 z m 1.74873,1.0604 q -0.25114,0.08372 -0.7953,0.199988 -0.54415,0.116272 -0.71158,0.227893 -0.2558,0.181384 -0.2558,0.460437 0,0.274402 0.20464,0.474389 0.20464,0.199988 0.5209,0.199988 0.35346,0 0.67437,-0.232544 0.2372,-0.176733 0.31161,-0.432531 0.0512,-0.167432 0.0512,-0.637171 z m 6.87865,-1.106909 -1.28829,0.232544 q -0.0651,-0.386023 -0.29766,-0.58136 -0.22789,-0.195337 -0.59531,-0.195337 -0.48834,0 -0.78135,0.339514 -0.28835,0.334863 -0.28835,1.125513 0,0.879016 0.293,1.241784 0.29766,0.362769 0.7953,0.362769 0.37207,0 0.60927,-0.20929 0.23719,-0.21394 0.33486,-0.730188 l 1.28364,0.218592 q -0.19998,0.883667 -0.76739,1.334802 -0.56741,0.451135 -1.52084,0.451135 -1.08365,0 -1.73013,-0.683679 -0.64182,-0.683679 -0.64182,-1.892908 0,-1.223181 0.64648,-1.902209 0.64647,-0.683679 1.74873,-0.683679 0.90227,0 1.43247,0.390674 0.53485,0.386023 0.76739,1.181323 z m 1.96732,0.04651 -1.18597,-0.213941 q 0.19999,-0.716235 0.68833,-1.0604 0.48834,-0.344165 1.45107,-0.344165 0.87437,0 1.30225,0.209289 0.42788,0.204639 0.59996,0.52555 0.17674,0.316259 0.17674,1.16737 l -0.014,1.525488 q 0,0.651123 0.0605,0.962732 0.0651,0.306958 0.2372,0.660425 h -1.29295 q -0.0512,-0.130224 -0.12557,-0.386023 -0.0326,-0.116272 -0.0465,-0.153479 -0.33486,0.325562 -0.71623,0.488342 -0.38138,0.162781 -0.81391,0.162781 -0.76274,0 -1.20457,-0.413928 -0.43719,-0.413928 -0.43719,-1.046448 0,-0.418579 0.19999,-0.74414 0.19999,-0.330213 0.55811,-0.502295 0.36276,-0.176734 1.04179,-0.306958 0.91623,-0.172083 1.26969,-0.320911 v -0.130224 q 0,-0.376722 -0.18603,-0.534851 -0.18604,-0.162781 -0.70229,-0.162781 -0.34881,0 -0.54415,0.139526 -0.19534,0.134876 -0.31626,0.479041 z m 1.74873,1.0604 q -0.25114,0.08372 -0.7953,0.199988 -0.54415,0.116272 -0.71158,0.227893 -0.2558,0.181384 -0.2558,0.460437 0,0.274402 0.20464,0.474389 0.20464,0.199988 0.5209,0.199988 0.35346,0 0.67437,-0.232544 0.2372,-0.176733 0.31161,-0.432531 0.0512,-0.167432 0.0512,-0.637171 z m 4.83692,-2.567285 v 1.041797 h -0.89297 v 1.990576 q 0,0.604614 0.0232,0.706933 0.0279,0.09767 0.11627,0.162781 0.093,0.06511 0.22325,0.06511 0.18138,0 0.52555,-0.125573 l 0.11162,1.013891 q -0.45579,0.195337 -1.0325,0.195337 -0.35346,0 -0.63717,-0.116272 -0.2837,-0.120923 -0.41858,-0.306958 -0.13022,-0.190686 -0.18138,-0.511596 -0.0419,-0.227893 -0.0419,-0.920874 v -2.153357 h -0.59996 v -1.041797 h 0.59996 v -0.981335 l 1.31155,-0.762745 v 1.74408 z"
         id="text10"
         aria-label="kindacat" />
      <g
         id="g10"
         transform="translate(-26.709689,0.8587017)">
        <rect
           style="fill:#e17481;fill-opacity:1;fill-rule:evenodd;stroke:#000000;stroke-width:0.463021;stroke-linecap:round;stroke-dasharray:none;stroke-opacity:1;paint-order:fill markers stroke"
           id="rect8-0"
           width="24.870834"
           height="24.870834"
           x="92.442932"
           y="72.259674" />
        <path
           id="rect8"
           style="fill:#ffba41;fill-opacity:1;fill-rule:evenodd;stroke:#000000;stroke-width:0.463021;stroke-linecap:round;stroke-dasharray:none;stroke-opacity:1;paint-order:fill markers stroke"
           d="m 109.00523,72.260706 c -0.91393,-0.05842 -1.51255,1.172657 -1.81126,4.506184 -2.80181,1.467308 -5.59475,3.067637 -8.34574,5.27358 -4.761218,-1.505275 -7.4981,-2.079142 -3.394108,6.11694 1.418257,2.8324 2.368803,5.89552 2.936772,8.973095 H 117.31377 V 80.266418 c -1.36264,-1.212057 -2.69207,-2.531414 -3.96307,-4.023527 -1.86873,-2.19384 -3.30967,-3.915974 -4.34547,-3.982185 z" />
        <circle
           style="fill:#ffffff;fill-opacity:1;fill-rule:evenodd;stroke:#000000;stroke-width:0.463021;stroke-linecap:round;stroke-dasharray:none;stroke-opacity:1;paint-order:fill markers stroke"
           id="path3"
           cx="110.28146"
           cy="82.716431"
           r="3.7041667" />
        <circle
           style="fill:#000000;fill-opacity:1;fill-rule:evenodd;stroke:none;stroke-width:0.463021;stroke-linecap:round;stroke-dasharray:none;stroke-opacity:1;paint-order:fill markers stroke"
           id="path4"
           cx="110.28146"
           cy="82.716431"
           r="1.984375" />
        <circle
           style="fill:#ffffff;fill-opacity:1;fill-rule:evenodd;stroke:#000000;stroke-width:0.463021;stroke-linecap:round;stroke-dasharray:none;stroke-opacity:1;paint-order:fill markers stroke"
           id="path3-2"
           cx="101.39068"
           cy="87.878677"
           r="3.7041667" />
        <circle
           style="fill:#000000;fill-opacity:1;fill-rule:evenodd;stroke:none;stroke-width:0.463021;stroke-linecap:round;stroke-dasharray:none;stroke-opacity:1;paint-order:fill markers stroke"
           id="path4-9"
           cx="101.39068"
           cy="87.878677"
           r="1.984375" />
        <g
           id="g9"
           transform="translate(0.1996101,-0.30006929)">
          <path
             style="fill:none;fill-rule:evenodd;stroke:#000000;stroke-width:0.463021;stroke-linecap:butt;stroke-linejoin:miter;stroke-dasharray:none;stroke-opacity:1"
             d="m 107.95784,89.346072 2.07134,3.070893"
             id="path5" />
          <path
             style="fill:none;fill-rule:evenodd;stroke:#000000;stroke-width:0.463021;stroke-linecap:round;stroke-linejoin:miter;stroke-dasharray:none;stroke-opacity:1"
             d="m 108.41976,93.342962 3.07089,-2.071344"
             id="path6" />
          <path
             style="fill:#000000;fill-opacity:1;fill-rule:evenodd;stroke:none;stroke-width:0.580827;stroke-linecap:round;stroke-dasharray:none;stroke-opacity:1;paint-order:fill markers stroke"
             id="path7"
             d="m 72.178439,75.321379 c -0.399742,0.0055 -1.331804,-1.559175 -1.136662,-1.908091 0.195143,-0.348917 2.016188,-0.373789 2.220787,-0.03033 0.204599,0.343456 -0.684383,1.932963 -1.084125,1.938423 z"
             transform="matrix(0.82903757,-0.5591929,0.35536009,0.52684301,21.772725,90.603755)" />
        </g>
      </g>
    </g>
  </g>
</svg>
